# AST/ASF file generated using VICON BodyLanguage
# -----------------------------------------------
:version 1.10
:name VICON
:units
  mass 1.0
  length 0.45
  angle deg
:documentation
   .ast/.asf automatically generated from VICON data using
   VICON BodyBuilder and BodyLanguage model FoxedUp or BRILLIANT.MOD
:root
   order TX TY TZ RX RY RZ
   axis XYZ
   position 0 0 0  
   orientation 0 0 0 
:bonedata
  begin
     id 1 
     name lhipjoint
     direction 0.660183 -0.676772 0.325788 
     length 2.75133 
     axis 0 0 0  XYZ
  end
  begin
     id 2 
     name lfemur
     direction 0.34202 -0.939693 0  
     length 7.70317  
     axis 0 0 20  XYZ
    dof rx ry rz
    limits (-160.0 20.0)
           (-70.0 70.0)
           (-60.0 70.0)
  end
  begin
     id 3 
     name ltibia
     direction 0.342105 -0.939662 0   
     length 7.18701   
     axis 0 0 20   XYZ
    dof rx
    limits (-10.0 170.0)
  end
  begin
     id 4 
     name lfoot
     direction 0.14163 -0.389126 0.910232   
     length 2.41719   
     axis -90 7.62852e-016 20   XYZ
    dof rx rz
    limits (-45.0 90.0)
           (-70.0 20.0)
  end
  begin
     id 5 
     name ltoes
     direction 1.53533e-011 -4.21926e-011 1   
     length 1.18611   
     axis -90 7.62852e-016 20   XYZ
    dof rx
    limits (-90.0 20.0)
  end
  begin
     id 6 
     name rhipjoint
     direction -0.6658 -0.67229 0.323631   
     length 2.76968  
     axis 0 0 0  XYZ 
  end
  begin
     id 7 
     name rfemur
     direction -0.34202 -0.939693 0   
     length 7.92547   
     axis 0 0 -20   XYZ
    dof rx ry rz
    limits (-160.0 20.0)
           (-70.0 70.0)
           (-70.0 60.0)
  end
  begin
     id 8 
     name rtibia
     direction -0.342022 -0.939692 0   
     length 7.22641   
     axis 0 0 -20   XYZ
    dof rx
    limits (-10.0 170.0)
 end
 begin
     id 9 
     name rfoot
     direction -0.105675 -0.29034 0.951071   
     length 2.48149  
     axis -90 -7.62852e-016 -20   XYZ
    dof rx rz
    limits (-45.0 90.0)
           (-20.0 70.0)
  end
  begin
     id 10 
     name rtoes
     direction -1.5349e-011 -4.21859e-011 1   
     length 1.23343   
     axis -90 -7.62852e-016 -20   XYZ
    dof rx
    limits (-90.0 20.0)
  end
  begin
     id 11 
     name lowerback
     direction 0.0104173 0.993624 -0.112266   
     length 2.00527   
     axis 0 0 0   XYZ
    dof rx ry rz
    limits (-20.0 45.0)
           (-30.0 30.0)
           (-30.0 30.0)
  end
  begin
     id 12 
     name upperback
     direction 0.00733149 0.999856 -0.0152913   
     length 2.01385   
     axis 0 0 0   XYZ
    dof rx ry rz
    limits (-20.0 45.0)
           (-30.0 30.0)
           (-30.0 30.0)
  end
  begin
     id 13 
     name thorax
     direction 0.0026304 0.999318 0.036841   
     length 2.03734   
     axis 0 0 0   XYZ
    dof rx ry rz
    limits (-20.0 45.0)
           (-30.0 30.0)
           (-30.0 30.0)
  end
  begin
     id 14 
     name lowerneck
     direction 0.0293154 0.998757 0.0403082   
     length 1.65303   
     axis 0 0 0   XYZ
    dof rx ry rz
    limits (-20.0 45.0)
           (-30.0 30.0)
           (-30.0 30.0)
  end
  begin
     id 15 
     name upperneck
     direction -0.0376619 0.998184 -0.0470083   
     length 1.60926   
     axis 0 0 0   XYZ
    dof rx ry rz
    limits (-20.0 45.0)
           (-30.0 30.0)
           (-30.0 30.0)
  end
  begin
     id 16
     name head
     direction -0.0170133 0.999635 -0.0209778  
     length 1.73625  
     axis 0 0 0   XYZ
    dof rx ry rz
    limits (-20.0 45.0)
           (-30.0 30.0)
           (-30.0 30.0)
  end
  begin
     id 17 
     name lclavicle
     direction 0.919857 0.39181 -0.0186333  
     length 3.75313  
     axis 0 0 0   XYZ
    dof ry rz
    limits (-20.0 10.0)
           (0.0 20.0)
  end
  begin
     id 18 
     name lhumerus
     direction 1 -4.48988e-011 1.44029e-027   
     length 5.49313   
     axis 180 -30 -90   XYZ
    dof rx ry rz
    limits (-60.0 90.0)
           (-90.0 90.0)
           (-90.0 90.0)
  end
  begin
     id 19
     name lradius
     direction 1 -4.48924e-011 7.46281e-027   
     length 3.29037   
     axis 180 -30 -90   XYZ
    dof rx
    limits (-10.0 170.0)
  end
  begin
     id 20
     name lwrist
     direction 1 -4.48955e-011 2.19879e-026   
     length 1.64519   
     axis -1.34358e-014 90 90   XYZ
    dof ry
    limits (-180.0 0.0)
 end
  begin
     id 21 
     name lhand
     direction 1 -4.48978e-011 4.39747e-026   
     length 0.729656   
     axis -2.80598e-014 90 90   XYZ
    dof rx rz
    limits (-90.0 90.0)
           (-45.0 45.0)
  end
  begin
     id 22 
     name lfingers
     direction 1 -4.49071e-011 8.79411e-026   
     length 0.588268   
     axis -5.61193e-014 90 90   XYZ
    dof rx
    limits (0.0 90.0)
  end
  begin
     id 23
     name lthumb
     direction 0.707107 -6.34817e-011 0.707107   
     length 0.844638   
     axis -90 45 -9.86923e-015   XYZ
    dof rx rz
    limits (-45.0 45.0)
           (-45.0 45.0)
  end
  begin
     id 24 
     name rclavicle
     direction -0.919898 0.388279 0.0550233   
     length 3.7171  
     axis 0 0 0   XYZ 
    dof ry rz
    limits (-10.0 20.0)
           (-20.0 0.0)
  end
  begin
     id 25 
     name rhumerus
     direction -1 -4.48968e-011 9.98372e-028  
     length 5.23684   
     axis 180 30 90   XYZ
    dof rx ry rz
    limits (-90.0 60.0)
           (-90.0 90.0)
           (-90.0 90.0)
  end
  begin
     id 26 
     name rradius
     direction -1 -4.48956e-011 1.01023e-026   
     length 3.38251   
     axis 180 30 90   XYZ
    dof rx
    limits (-10.0 170.0)
  end
  begin
     id 27 
     name rwrist
     direction -1 -4.4892e-011 2.19886e-026   
     length 1.69126   
     axis -1.34358e-014 -90 -90   XYZ
    dof ry
    limits (-180.0 0.0)
  end
  begin
     id 28
     name rhand
     direction -1 -4.49024e-011 4.39727e-026   
     length 0.691454   
     axis -2.80598e-014 -90 -90   XYZ
    dof rx rz
    limits (-90.0 90.0)
           (-45.0 45.0)
  end
  begin
     id 29
     name rfingers
     direction -1 -4.49097e-011 8.79388e-026   
     length 0.557468   
     axis -5.61193e-014 -90 -90   XYZ
    dof rx
    limits (0.0 90.0)
  end
  begin
     id 30
     name rthumb
     direction -0.707107 -6.34938e-011 0.707107   
     length 0.800416   
     axis -90 -45 9.86923e-015   XYZ
    dof rx rz
    limits (-45.0 45.0)
           (-45.0 45.0)
  end
:hierarchy
  begin
    root lhipjoint rhipjoint lowerback
    lhipjoint lfemur
    lfemur ltibia
    ltibia lfoot
    lfoot ltoes
    rhipjoint rfemur
    rfemur rtibia
    rtibia rfoot
    rfoot rtoes
    lowerback upperback
    upperback thorax
    thorax lowerneck lclavicle rclavicle
    lowerneck upperneck
    upperneck head
    lclavicle lhumerus
    lhumerus lradius
    lradius lwrist
    lwrist lhand lthumb
    lhand lfingers
    rclavicle rhumerus
    rhumerus rradius
    rradius rwrist
    rwrist rhand rthumb
    rhand rfingers
  end

#!OML:ASF H:\BabyWalks\Project 1\Capture day 1\Session 1\baby.ASF
:FULLY-SPECIFIED
:DEGREES
54
root -36.7411 17.5799 -3.68659 -16.8291 73.1843 -18.2132
lowerback 14.81 -1.20772 1.73864
upperback 7.00508 -0.964839 2.98217
thorax -0.878355 -0.355057 2.2816
lowerneck -5.20087 4.03105 -0.0447558
upperneck 14.6984 6.20343 -3.91718
head 5.40738 2.82632 -0.819822
rclavicle -4.37326e-015 -2.5842e-015
rhumerus -36.4602 18.7506 -83.0857
rradius 44.1241
rwrist 1.03917
rhand -9.14584 -15.6053
rfingers 7.12502
rthumb 16.8061 -44.8979
lclavicle -4.37326e-015 -2.5842e-015
lhumerus -37.9829 4.75328 80.9317
lradius 50.4771
lwrist 1.85941
lhand 1.14755 12.1796
lfingers 7.12502
lthumb 26.6891 40.3178
rfemur 14.7615 -1.54865 27.5211
rtibia 3.18055e-015
rfoot -14.3266 -16.446
rtoes 0.235727
lfemur -21.1928 7.17443 -11.575
ltibia 35.2945
lfoot -13.1732 4.524
ltoes 0.186075
55
root -36.7426 17.5797 -3.685 -16.8567 73.2246 -18.2194
lowerback 14.8001 -1.21711 1.75201
upperback 6.99737 -0.975888 2.98138
thorax -0.881177 -0.36037 2.27477
lowerneck -5.17934 4.02831 -0.0328503
upperneck 14.7068 6.20132 -3.931
head 5.40706 2.82545 -0.826556
rclavicle 1.19271e-015 -3.97569e-015
rhumerus -36.4722 18.7308 -83.0785
rradius 44.1522
rwrist 1.00728
rhand -9.11431 -15.6317
rfingers 7.12502
rthumb 16.8364 -44.9218
lclavicle 1.19271e-015 -3.97569e-015
lhumerus -38.0207 4.74556 80.9412
lradius 50.4374
lwrist 1.84442
lhand 1.15102 12.176
lfingers 7.12502
lthumb 26.6924 40.3137
rfemur 14.7839 -1.59138 27.5138
rtibia -4.77083e-014
rfoot -14.3363 -16.4401
rtoes 0.260198
lfemur -21.1759 7.13766 -11.58
ltibia 35.2774
lfoot -13.1673 4.51603
ltoes 0.181838
56
root -36.7441 17.5793 -3.68343 -16.896 73.2633 -18.2371
lowerback 14.7912 -1.22536 1.76866
upperback 6.9899 -0.984871 2.98233
thorax -0.884347 -0.364581 2.26761
lowerneck -5.15912 4.02541 -0.0183842
upperneck 14.7153 6.19935 -3.9486
head 5.4072 2.82451 -0.834835
rclavicle 4.12478e-014 -2.96189e-014
rhumerus -36.4876 18.7086 -83.0689
rradius 44.1818
rwrist 0.978364
rhand -9.0754 -15.648
rfingers 7.12502
rthumb 16.8739 -44.9349
lclavicle 4.12478e-014 -2.96189e-014
lhumerus -38.0578 4.74167 80.9516
lradius 50.3975
lwrist 1.82997
lhand 1.15692 12.1738
lfingers 7.12502
lthumb 26.698 40.3106
rfemur 14.8068 -1.63368 27.5106
rtibia -4.45278e-014
rfoot -14.3445 -16.4351
rtoes 0.284514
lfemur -21.1605 7.10354 -11.5807
ltibia 35.2652
lfoot -13.1638 4.5054
ltoes 0.179292
57
root -36.7456 17.5789 -3.6819 -16.9465 73.3022 -18.2653
lowerback 14.7824 -1.23351 1.78847
upperback 6.98338 -0.993194 2.98471
thorax -0.886649 -0.368377 2.26006
lowerneck -5.14126 4.02198 -0.00182593
upperneck 14.724 6.19708 -3.97022
head 5.40798 2.82325 -0.844658
rclavicle 5.46658e-016 -1.5704e-014
rhumerus -36.5042 18.6866 -83.0576
rradius 44.2107
rwrist 0.954654
rhand -9.03704 -15.6542
rfingers 7.12502
rthumb 16.9108 -44.938
lclavicle 5.46658e-016 -1.5704e-014
lhumerus -38.0926 4.74247 80.9626
lradius 50.3577
lwrist 1.8162
lhand 1.16517 12.1731
lfingers 7.12502
lthumb 26.7059 40.3087
rfemur 14.8311 -1.67729 27.5101
rtibia 2.22639e-014
rfoot -14.3537 -16.4288
rtoes 0.310689
lfemur -21.1456 7.07057 -11.5786
ltibia 35.2561
lfoot -13.1634 4.49275
ltoes 0.17593
58
root -36.747 17.5785 -3.6803 -16.9999 73.3403 -18.2959
lowerback 14.7732 -1.24006 1.80752
upperback 6.97811 -0.99946 2.9885
thorax -0.887404 -0.371153 2.2541
lowerneck -5.12563 4.01815 0.0192707
upperneck 14.7324 6.1949 -3.99901
head 5.40943 2.82178 -0.857379
rclavicle -4.29375e-014 2.56432e-014
rhumerus -36.5197 18.6627 -83.0433
rradius 44.2361
rwrist 0.939008
rhand -9.00128 -15.6482
rfingers 7.12502
rthumb 16.9452 -44.929
lclavicle -4.29375e-014 2.56432e-014
lhumerus -38.1242 4.74707 80.9744
lradius 50.3162
lwrist 1.80668
lhand 1.17226 12.1644
lfingers 7.12502
lthumb 26.7127 40.2989
rfemur 14.8556 -1.72059 27.5113
rtibia -5.40694e-014
rfoot -14.3594 -16.4248
rtoes 0.324263
lfemur -21.1302 7.04035 -11.5753
ltibia 35.2483
lfoot -13.1635 4.47844
ltoes 0.179025
